<svg version="1.1" id="Layer_1" xmlns="http://www.w3.org/2000/svg" xmlns:xlink="http://www.w3.org/1999/xlink" x="0px" y="0px"
	 width="100%" viewBox="0 0 1199 1210" enable-background="new 0 0 1199 1210" xml:space="preserve">
<path fill="#000000" opacity="1.000000" stroke="none" 
	d="
M697.000000,1211.000000 
	C464.666656,1211.000000 232.833328,1211.000000 1.000000,1211.000000 
	C1.000000,807.666687 1.000000,404.333344 1.000000,1.000000 
	C400.666656,1.000000 800.333313,1.000000 1200.000000,1.000000 
	C1200.000000,404.333344 1200.000000,807.666687 1200.000000,1211.000000 
	C1032.500000,1211.000000 865.000000,1211.000000 697.000000,1211.000000 
M322.288116,611.541565 
	C285.379028,611.528320 248.469818,611.551086 211.560898,611.462708 
	C206.103165,611.449646 202.695831,613.851440 201.254868,618.977844 
	C196.677765,635.261230 192.180771,651.567139 187.116638,668.393616 
	C184.942017,676.567078 182.767395,684.740479 180.073883,693.577820 
	C177.328018,704.049683 174.582153,714.521545 171.347687,725.550415 
	C168.589493,735.701172 165.831299,745.851990 162.680054,756.651184 
	C161.909958,759.336853 161.022919,761.995422 160.393356,764.713623 
	C158.931580,771.025024 162.715012,775.894226 169.149536,775.980957 
	C173.099396,776.034302 177.051941,775.889221 181.930054,775.979614 
	C227.177612,775.986755 272.425171,775.997986 317.672729,775.996521 
	C324.092529,775.996338 326.260406,774.444458 328.155243,768.387207 
	C329.392487,764.432068 330.517761,760.440125 331.614075,756.442993 
	C336.129974,739.978027 340.615631,723.504700 345.638550,706.486511 
	C347.954865,698.048828 350.271149,689.611206 352.932404,680.552246 
	C354.748077,674.021118 356.649933,667.512268 358.347137,660.950500 
	C359.366333,657.010254 360.066284,652.987488 361.203857,648.289490 
	C363.797150,638.859741 366.390442,629.430054 369.167480,619.243042 
	C368.645538,614.297302 365.625580,611.638062 360.930237,611.595398 
	C348.308502,611.480652 335.683533,611.723755 322.288116,611.541565 
M289.446869,565.535767 
	C288.665283,568.251221 287.844788,570.956238 287.109222,573.684082 
	C284.625519,582.894775 288.063751,587.491821 297.503906,587.503357 
	C321.500946,587.532776 345.498047,587.540222 369.495117,587.522766 
	C377.445404,587.516968 379.704285,585.783813 381.855164,578.069519 
	C384.674774,567.956665 387.429047,557.825623 390.202972,547.700134 
	C392.457916,539.469055 394.700409,531.234558 397.347504,522.369751 
	C398.718018,517.578613 400.115143,512.794922 401.453278,507.994781 
	C404.064697,498.627075 400.537720,494.015808 390.715149,494.007812 
	C368.556152,493.989838 346.397186,494.005188 324.238190,494.007751 
	C309.613312,494.009430 309.544189,493.990692 305.545593,508.295349 
	C300.269592,527.169678 295.115479,546.078064 289.446869,565.535767 
M181.024948,633.289917 
	C182.008545,629.776184 183.241531,626.310059 183.922073,622.738525 
	C185.205002,616.005798 181.662155,611.561462 174.833435,611.536316 
	C149.551941,611.443054 124.269859,611.518799 98.988014,611.505493 
	C93.781937,611.502747 90.535522,614.005981 89.155930,618.964233 
	C83.865486,637.978271 78.593796,656.997620 73.029366,676.741821 
	C71.672676,681.527466 70.268211,686.300110 68.969452,691.101440 
	C66.429222,700.492249 69.913155,704.981018 79.790245,704.993286 
	C103.069138,705.022217 126.348091,705.009399 149.627014,705.010132 
	C159.493591,705.010437 161.375381,703.581848 163.981262,694.198181 
	C169.553101,674.134094 175.132812,654.072144 181.024948,633.289917 
M105.170753,562.468811 
	C104.131554,566.142639 103.056526,569.806763 102.060143,573.492188 
	C99.470772,583.069763 102.790611,587.503540 112.619888,587.508423 
	C160.705612,587.532471 208.791351,587.536621 256.877075,587.536377 
	C265.505127,587.536377 267.603882,585.910583 269.909485,577.665955 
	C273.485413,564.878540 277.118835,552.107117 280.651611,539.307800 
	C285.461090,521.882935 290.198792,504.438324 295.399048,486.392578 
	C296.147980,483.844971 296.922607,481.304626 297.641602,478.748627 
	C301.686005,464.370728 305.779938,450.006256 309.726105,435.601379 
	C311.691528,428.426849 308.859772,424.021423 301.087982,422.870697 
	C251.798843,422.860809 202.509705,422.839142 153.220566,422.854706 
	C146.393158,422.856842 143.935501,424.737091 142.055466,431.170776 
	C140.470688,436.594025 138.947739,442.035919 137.452148,447.484589 
	C132.925507,463.975891 128.425461,480.474487 123.447479,497.540527 
	C117.476143,518.982056 111.504807,540.423523 105.170753,562.468811 
M866.068848,525.289490 
	C864.662659,520.681030 863.843384,515.761719 861.628906,511.581451 
	C860.313232,509.097748 856.858154,506.424927 854.259521,506.314209 
	C851.647949,506.202911 848.803284,509.023529 846.282043,510.862610 
	C845.515991,511.421326 845.461548,512.979614 845.119629,514.091980 
	C837.404846,539.185120 829.698059,564.280762 821.979065,589.372620 
	C821.438171,591.130859 820.813965,592.863525 819.786499,595.925049 
	C816.205322,584.183899 813.109009,574.013123 810.000793,563.846069 
	C804.754517,546.685669 799.558411,529.509644 794.219971,512.377930 
	C792.256409,506.076538 786.609314,503.840790 782.475891,507.503937 
	C779.229431,510.381073 780.267395,513.831116 781.366028,517.208801 
	C790.975464,546.752502 800.593933,576.293274 810.242188,605.824341 
	C812.264526,612.014160 815.543518,614.907715 820.154724,614.814087 
	C824.722778,614.721313 827.947998,611.689087 829.876648,605.576111 
	C833.625977,593.692749 837.327881,581.794373 841.082153,569.912537 
	C845.153198,557.028198 849.261414,544.155579 853.729675,530.093811 
	C854.720825,532.561707 855.330933,533.840149 855.755615,535.177429 
	C858.521667,543.886597 861.243652,552.609802 863.987000,561.326172 
	C868.775696,576.541321 873.571777,591.754150 878.359436,606.969604 
	C879.796509,611.536560 882.714111,614.616333 887.616516,614.739380 
	C892.580322,614.864014 895.521423,611.812256 897.037292,607.264648 
	C897.300049,606.476318 897.605713,605.702148 897.862671,604.912048 
	C905.931763,580.108826 914.005005,555.306946 922.057251,530.498169 
	C923.800598,525.127014 925.595459,519.766968 927.123779,514.333496 
	C928.160522,510.647552 926.912598,507.555786 923.161194,506.294861 
	C919.363281,505.018341 916.256653,506.442261 914.381653,510.023682 
	C913.697510,511.330505 913.377502,512.834534 912.942017,514.264038 
	C905.243408,539.536438 897.557678,564.812744 889.847412,590.081604 
	C889.392090,591.573669 888.752991,593.009521 887.776062,595.589417 
	C880.364441,571.620483 873.320740,548.841370 866.068848,525.289490 
M1125.186523,596.543335 
	C1128.027100,589.518433 1128.725220,582.357544 1126.207642,575.112427 
	C1123.129639,566.254333 1115.770874,561.895691 1107.522095,558.267883 
	C1110.137207,556.181091 1112.647217,554.559998 1114.689819,552.479858 
	C1122.108398,544.924805 1123.196533,535.715271 1120.438843,526.052368 
	C1117.494873,515.736328 1109.806152,509.182648 1099.666016,508.279236 
	C1083.146240,506.807404 1066.460327,507.045685 1049.842041,506.941650 
	C1045.724365,506.915863 1043.964722,510.252075 1043.963623,514.247620 
	C1043.954346,545.055847 1043.943726,575.864136 1043.979248,606.672363 
	C1043.984619,611.277466 1046.514038,613.925964 1051.059692,613.950684 
	C1065.546143,614.029114 1080.055054,614.365295 1094.514404,613.703979 
	C1107.012451,613.132507 1118.622314,609.809692 1125.186523,596.543335 
M535.117737,557.593689 
	C536.746826,555.096191 538.723450,552.757507 539.948914,550.075623 
	C548.354431,531.679626 537.657593,511.299652 516.282654,508.470612 
	C499.072571,506.192780 481.423981,507.065674 463.966888,506.930481 
	C459.576324,506.896484 457.949066,510.454712 457.950684,514.641418 
	C457.962463,545.288208 457.939148,575.935059 457.972412,606.581848 
	C457.977844,611.596863 460.631866,614.689148 464.725342,614.790283 
	C468.996948,614.895935 471.913025,611.637878 471.962891,606.470520 
	C472.033600,599.142639 471.981995,591.813538 471.982422,584.484985 
	C471.982697,580.411072 471.982483,576.337097 471.982483,572.153381 
	C483.790680,572.153381 494.783569,571.877319 505.756287,572.229797 
	C517.073730,572.593323 524.091003,578.551392 526.254211,589.734436 
	C527.383057,595.570496 527.448059,601.631531 527.743408,607.603394 
	C527.962952,612.041687 530.159363,614.589233 534.437500,614.721436 
	C538.722351,614.853821 541.304749,612.305786 541.664062,608.034058 
	C541.928223,604.893005 542.026550,601.673218 541.651184,598.554443 
	C540.043274,585.195251 538.714539,571.596436 523.941833,565.901611 
	C527.489746,563.321655 531.064148,560.722412 535.117737,557.593689 
M625.962708,614.595398 
	C632.945862,611.638489 640.677917,609.761414 646.777405,605.530518 
	C668.635010,590.369385 674.993774,556.893066 661.552368,531.773621 
	C649.211548,508.710907 620.253845,498.526215 594.054749,508.581909 
	C571.226807,517.343628 561.718567,535.497253 560.553650,558.852600 
	C559.258423,584.821411 574.558472,607.448608 598.435242,613.238953 
	C606.954712,615.304993 616.206604,614.350891 625.962708,614.595398 
M1005.424255,506.691101 
	C988.604797,506.691315 971.785278,506.663208 954.965942,506.705566 
	C948.147888,506.722748 945.968506,508.898254 945.963623,515.618225 
	C945.942078,545.426941 945.942871,575.235718 945.962219,605.044434 
	C945.966553,611.738708 948.224365,613.987732 954.931396,613.996216 
	C974.082275,614.020508 993.233154,614.015442 1012.384033,613.998596 
	C1018.379211,613.993286 1021.106384,611.935303 1021.109375,607.528748 
	C1021.112488,603.081360 1018.380249,600.968750 1012.460266,600.961121 
	C996.640015,600.940613 980.819702,600.953857 964.999451,600.953613 
	C963.405334,600.953552 961.811279,600.953552 960.291748,600.953552 
	C960.291748,589.239929 960.291748,578.166321 960.291748,566.857910 
	C961.911194,566.857910 963.224182,566.857971 964.537109,566.857910 
	C978.692078,566.857788 992.847168,566.883362 1007.002014,566.844727 
	C1012.598022,566.829407 1015.806885,564.289612 1015.703430,560.147644 
	C1015.602295,556.105042 1012.636414,553.831482 1007.264709,553.776245 
	C1002.768921,553.730042 998.272217,553.766174 993.775940,553.766113 
	C982.663879,553.766052 971.551880,553.766052 960.258179,553.766052 
	C960.258179,542.213318 960.258179,531.156311 960.258179,519.783386 
	C977.153625,519.783386 993.777161,519.787170 1010.400635,519.777649 
	C1012.063538,519.776672 1013.766602,519.910278 1015.381348,519.608704 
	C1019.120789,518.910278 1021.376587,516.721069 1021.059753,512.694092 
	C1020.767761,508.983582 1018.541809,506.985992 1014.884399,506.773804 
	C1012.062378,506.610107 1009.225037,506.709015 1005.424255,506.691101 
M711.969910,567.449768 
	C703.681580,577.669312 695.416321,587.907776 687.091248,598.097290 
	C684.464539,601.312256 683.235901,604.756348 685.069519,608.709167 
	C686.998291,612.867126 690.544373,614.056824 694.921143,614.040710 
	C716.413391,613.961609 737.906067,614.014771 759.398621,613.998596 
	C765.388306,613.994080 768.139160,611.935852 768.162842,607.559814 
	C768.186646,603.161926 765.377014,600.968750 759.537964,600.961548 
	C741.877441,600.939941 724.216858,600.957764 706.556335,600.944275 
	C705.154236,600.943176 703.752319,600.819031 701.698792,600.720947 
	C703.132324,598.849365 704.087769,597.541565 705.104553,596.283264 
	C724.680847,572.057983 744.241211,547.819763 763.871216,523.638062 
	C766.821106,520.004150 768.374390,516.263000 766.305542,511.720917 
	C764.223145,507.149139 760.187744,506.656189 755.817627,506.665009 
	C734.991638,506.707092 714.165527,506.664978 693.339417,506.695526 
	C687.593323,506.703949 684.702026,508.974487 684.658508,513.297852 
	C684.614502,517.670227 687.518738,519.988464 693.229736,519.996399 
	C710.390442,520.020203 727.551208,520.005188 744.711914,520.005249 
	C746.293335,520.005249 747.874756,520.005188 750.397644,520.005188 
	C737.292786,536.185791 724.854736,551.543030 711.969910,567.449768 
M473.525635,676.994080 
	C466.815979,684.693176 469.037354,694.277466 478.528595,697.784363 
	C482.715454,699.331482 487.159088,700.169739 491.404724,701.575684 
	C495.207031,702.834900 496.917328,705.808105 496.603912,709.707764 
	C496.272430,713.832642 493.960815,716.353455 489.779755,717.114380 
	C482.388824,718.459412 476.326111,716.417236 472.002777,710.061218 
	C467.799927,712.599365 468.035980,715.161072 471.410400,717.855713 
	C477.283173,722.545288 483.966431,723.599792 491.165924,722.138977 
	C499.255920,720.497559 503.344910,714.678101 502.235901,706.539062 
	C501.362091,700.126038 496.906067,697.347778 491.328796,695.686157 
	C487.361694,694.504211 483.041656,693.944824 479.550842,691.938782 
	C477.476501,690.746704 475.556610,687.222900 475.691986,684.869751 
	C475.810608,682.808655 478.537323,679.953186 480.738037,679.137207 
	C486.816162,676.883667 492.474640,678.618591 497.462158,683.395752 
	C498.522858,681.924683 499.431152,680.664978 500.286041,679.479309 
	C493.882172,672.275024 483.316803,671.195679 473.525635,676.994080 
M554.267395,699.122925 
	C554.199158,701.777954 553.886719,704.453674 554.108582,707.084229 
	C554.774353,714.976562 559.140869,720.423767 565.837646,722.075073 
	C579.643494,725.479248 589.366455,715.819153 587.397827,700.654297 
	C586.149658,691.039368 580.968811,685.723999 572.225037,685.087708 
	C563.118042,684.424988 557.108704,688.899170 554.267395,699.122925 
M922.050354,700.864868 
	C922.424988,704.643982 922.231506,708.592346 923.296143,712.165955 
	C925.325989,718.979370 930.598816,722.294250 937.524597,722.674927 
	C944.072327,723.034851 949.889709,721.126343 953.061462,714.906128 
	C956.751465,707.669434 956.913513,699.986328 952.918457,692.940613 
	C951.275513,690.043152 947.958679,687.364807 944.805420,686.185852 
	C933.908386,682.111816 925.027649,687.775513 922.050354,700.864868 
M733.950745,705.497986 
	C733.950745,699.064880 733.950745,692.631775 733.950745,686.157837 
	C731.875061,686.157837 730.295166,686.157837 728.088257,686.157837 
	C728.088257,693.763184 728.418579,701.083801 727.989868,708.359741 
	C727.606750,714.861938 723.066040,718.443542 716.993896,717.949951 
	C712.027832,717.546387 710.106201,714.758362 710.082458,707.808044 
	C710.057678,700.558594 710.076965,693.309021 710.076965,686.073364 
	C708.028503,686.073364 706.594971,686.073364 704.948730,686.073364 
	C704.948730,695.094482 704.724731,703.899841 705.029846,712.686951 
	C705.223816,718.272339 708.486694,721.311707 713.986023,722.448120 
	C719.567200,723.601440 723.999878,721.460510 728.127930,717.360291 
	C728.602844,719.159241 728.954651,720.491760 729.279724,721.722900 
	C730.870911,721.722900 732.271423,721.722900 733.950745,721.722900 
	C733.950745,716.451538 733.950745,711.473755 733.950745,705.497986 
M1017.612427,693.174988 
	C1021.017700,689.654175 1025.271606,688.926392 1029.559570,690.578064 
	C1033.984863,692.282715 1033.571533,696.679688 1033.626099,700.473267 
	C1033.728394,707.570557 1033.655518,714.670288 1033.655518,721.863403 
	C1035.701050,721.863403 1037.150146,721.863403 1038.883545,721.863403 
	C1038.883545,713.075745 1039.227295,704.424438 1038.777466,695.814575 
	C1038.401123,688.611023 1034.094971,684.660156 1026.928833,685.254211 
	C1022.775818,685.598450 1018.785522,687.906128 1014.600464,689.372803 
	C1014.526733,689.000061 1014.226074,687.480225 1013.886169,685.762146 
	C1012.201233,685.916870 1010.764771,686.048767 1009.186890,686.193665 
	C1009.186890,692.334473 1009.186768,698.154480 1009.186829,703.974487 
	C1009.186829,709.914490 1009.186890,715.854553 1009.186890,722.123962 
	C1011.413574,721.954041 1012.977234,721.834717 1014.779663,721.697144 
	C1014.779663,716.472717 1014.476501,711.632568 1014.868958,706.849548 
	C1015.228394,702.469177 1016.339294,698.150391 1017.612427,693.174988 
M1119.030640,711.544922 
	C1118.894775,706.285706 1115.931274,703.360168 1111.115967,701.976868 
	C1107.770752,701.015808 1104.215942,700.481140 1101.159302,698.949036 
	C1099.676270,698.205688 1098.296631,695.556213 1098.406616,693.869873 
	C1098.495483,692.506226 1100.825562,690.300781 1102.265381,690.214905 
	C1105.445190,690.025269 1109.174316,690.103027 1111.782471,691.616882 
	C1114.808105,693.372864 1116.058838,692.986633 1117.607788,689.996582 
	C1112.945923,684.658203 1107.043213,684.316345 1100.768188,685.703796 
	C1096.320190,686.687195 1093.250854,689.187500 1092.927979,694.108521 
	C1092.598633,699.129883 1095.072510,702.377014 1099.631226,704.003906 
	C1102.436401,705.005005 1105.392944,705.576965 1108.271973,706.376160 
	C1111.400757,707.244690 1113.959351,708.819214 1113.586792,712.525146 
	C1113.222534,716.149475 1110.322754,718.029175 1107.279175,717.643921 
	C1102.957153,717.096802 1098.787476,715.347473 1093.484497,713.800110 
	C1093.387085,714.227905 1092.073242,716.760498 1092.753906,717.530884 
	C1097.249268,722.618896 1103.257568,723.450378 1109.630737,722.252258 
	C1115.712158,721.109131 1117.999512,718.603760 1119.030640,711.544922 
M791.939514,684.461548 
	C789.967957,685.183594 787.996460,685.905701 785.950256,686.655090 
	C785.950256,687.561829 785.950256,688.662903 785.950256,689.956299 
	C787.938232,690.054688 789.713806,690.142578 791.395874,690.225830 
	C791.620728,690.715271 791.872559,691.009460 791.874695,691.305481 
	C791.922974,697.954468 791.911621,704.603943 791.977600,711.252747 
	C792.068481,720.402527 797.712708,724.630676 806.372070,722.087097 
	C810.359741,720.915710 810.552795,720.223633 807.913391,716.561401 
	C800.883545,719.037598 797.594727,717.772522 797.338196,712.006409 
	C797.021423,704.886719 797.262451,697.742188 797.262451,690.085083 
	C801.304993,690.085083 805.042297,690.085083 809.105225,690.085083 
	C808.888123,688.319946 808.740234,687.117249 808.582764,685.836792 
	C806.394958,685.836792 804.568237,685.836792 802.741577,685.836792 
	C800.998840,685.836792 799.256104,685.836792 797.432983,685.836792 
	C797.271912,682.602417 797.150574,680.166748 797.010132,677.346375 
	C795.136841,677.706055 793.612122,677.998840 791.964111,678.315308 
	C791.964111,680.250000 791.964111,681.906494 791.939514,684.461548 
M642.041565,705.474915 
	C642.059998,708.634827 641.895142,711.808960 642.138916,714.951355 
	C642.521973,719.889221 645.483398,722.660767 650.147888,722.791565 
	C653.539673,722.886658 655.302124,721.745972 653.477295,717.678467 
	C648.166199,718.985901 647.409607,715.713440 647.637878,711.430420 
	C647.761658,709.108398 647.659485,706.774414 647.659424,704.445801 
	C647.659363,693.501465 647.659363,682.557190 647.659363,671.378906 
	C645.589722,671.378906 644.036682,671.378906 642.041565,671.378906 
	C642.041565,682.592407 642.041565,693.537720 642.041565,705.474915 
M867.816162,707.492920 
	C867.816162,700.417419 867.816162,693.341980 867.816162,686.249023 
	C865.637146,686.249023 863.950989,686.249023 862.480164,686.249023 
	C862.480164,698.386902 862.480164,710.095886 862.480164,722.112732 
	C864.395935,721.979431 865.962036,721.870483 867.816162,721.741455 
	C867.816162,717.070740 867.816162,712.779419 867.816162,707.492920 
M862.523071,677.998657 
	C864.482544,677.600220 866.568237,677.460632 868.308044,676.612000 
	C868.716858,676.412598 868.466431,673.125366 867.610107,672.496399 
	C866.473511,671.661560 863.457642,671.371399 863.004333,672.039001 
	C862.057129,673.433960 862.259827,675.609680 862.523071,677.998657 
z"/>
<path fill="#6488F6" opacity="1.000000" stroke="none" 
	d="
M302.003601,423.089783 
	C308.859772,424.021423 311.691528,428.426849 309.726105,435.601379 
	C305.779938,450.006256 301.686005,464.370728 297.641602,478.748627 
	C296.922607,481.304626 296.147980,483.844971 294.785767,486.700195 
	C291.787964,487.668945 289.309174,488.099182 287.033905,489.027985 
	C269.505280,496.183441 252.029816,503.468933 234.511902,510.650787 
	C194.405685,527.093201 154.295410,543.525879 114.145950,559.862183 
	C111.449844,560.959229 108.412239,561.216919 105.533463,561.865051 
	C111.504807,540.423523 117.476143,518.982056 124.086182,497.259155 
	C127.113998,496.335083 129.604950,495.941132 131.876526,495.011261 
	C155.093628,485.507416 178.260361,475.880585 201.470032,466.358459 
	C233.747299,453.116180 266.059204,439.958221 298.308685,426.648773 
	C299.779388,426.041809 300.782623,424.302002 302.003601,423.089783 
z"/>
<path fill="#6698F5" opacity="1.000000" stroke="none" 
	d="
M105.352112,562.166931 
	C108.412239,561.216919 111.449844,560.959229 114.145950,559.862183 
	C154.295410,543.525879 194.405685,527.093201 234.511902,510.650787 
	C252.029816,503.468933 269.505280,496.183441 287.033905,489.027985 
	C289.309174,488.099182 291.787964,487.668945 294.569885,487.005005 
	C290.198792,504.438324 285.461090,521.882935 280.651611,539.307800 
	C277.118835,552.107117 273.485413,564.878540 269.909485,577.665955 
	C267.603882,585.910583 265.505127,587.536377 256.877075,587.536377 
	C208.791351,587.536621 160.705612,587.532471 112.619888,587.508423 
	C102.790611,587.503540 99.470772,583.069763 102.060143,573.492188 
	C103.056526,569.806763 104.131554,566.142639 105.352112,562.166931 
z"/>
<path fill="#637AF6" opacity="1.000000" stroke="none" 
	d="
M301.545776,422.980255 
	C300.782623,424.302002 299.779388,426.041809 298.308685,426.648773 
	C266.059204,439.958221 233.747299,453.116180 201.470032,466.358459 
	C178.260361,475.880585 155.093628,485.507416 131.876526,495.011261 
	C129.604950,495.941132 127.113998,496.335083 124.319969,496.974030 
	C128.425461,480.474487 132.925507,463.975891 137.452148,447.484589 
	C138.947739,442.035919 140.470688,436.594025 142.055466,431.170776 
	C143.935501,424.737091 146.393158,422.856842 153.220566,422.854706 
	C202.509705,422.839142 251.798843,422.860809 301.545776,422.980255 
z"/>
<path fill="#79D2F5" opacity="1.000000" stroke="none" 
	d="
M866.172974,525.675903 
	C873.320740,548.841370 880.364441,571.620483 887.776062,595.589417 
	C888.752991,593.009521 889.392090,591.573669 889.847412,590.081604 
	C897.557678,564.812744 905.243408,539.536438 912.942017,514.264038 
	C913.377502,512.834534 913.697510,511.330505 914.381653,510.023682 
	C916.256653,506.442261 919.363281,505.018341 923.161194,506.294861 
	C926.912598,507.555786 928.160522,510.647552 927.123779,514.333496 
	C925.595459,519.766968 923.800598,525.127014 922.057251,530.498169 
	C914.005005,555.306946 905.931763,580.108826 897.862671,604.912048 
	C897.605713,605.702148 897.300049,606.476318 897.037292,607.264648 
	C895.521423,611.812256 892.580322,614.864014 887.616516,614.739380 
	C882.714111,614.616333 879.796509,611.536560 878.359436,606.969604 
	C873.571777,591.754150 868.775696,576.541321 863.987000,561.326172 
	C861.243652,552.609802 858.521667,543.886597 855.755615,535.177429 
	C855.330933,533.840149 854.720825,532.561707 853.729675,530.093811 
	C849.261414,544.155579 845.153198,557.028198 841.082153,569.912537 
	C837.327881,581.794373 833.625977,593.692749 829.876648,605.576111 
	C827.947998,611.689087 824.722778,614.721313 820.154724,614.814087 
	C815.543518,614.907715 812.264526,612.014160 810.242188,605.824341 
	C800.593933,576.293274 790.975464,546.752502 781.366028,517.208801 
	C780.267395,513.831116 779.229431,510.381073 782.475891,507.503937 
	C786.609314,503.840790 792.256409,506.076538 794.219971,512.377930 
	C799.558411,529.509644 804.754517,546.685669 810.000793,563.846069 
	C813.109009,574.013123 816.205322,584.183899 819.786499,595.925049 
	C820.813965,592.863525 821.438171,591.130859 821.979065,589.372620 
	C829.698059,564.280762 837.404846,539.185120 845.119629,514.091980 
	C845.461548,512.979614 845.515991,511.421326 846.282043,510.862610 
	C848.803284,509.023529 851.647949,506.202911 854.259521,506.314209 
	C856.858154,506.424927 860.313232,509.097748 861.628906,511.581451 
	C863.843384,515.761719 864.662659,520.681030 866.172974,525.675903 
z"/>
<path fill="#76C9F9" opacity="1.000000" stroke="none" 
	d="
M163.073105,756.002808 
	C165.831299,745.851990 168.589493,735.701172 171.996078,725.270996 
	C174.088364,724.661499 175.610947,724.523682 176.963318,723.970032 
	C185.431747,720.502930 193.839767,716.888245 202.309189,713.423645 
	C238.343719,698.683350 274.380096,683.947449 310.441895,669.273987 
	C327.233856,662.441345 344.085236,655.754639 360.909698,649.001770 
	C360.066284,652.987488 359.366333,657.010254 358.347137,660.950500 
	C356.649933,667.512268 354.748077,674.021118 352.323547,680.829590 
	C349.160034,681.730408 346.480316,682.046570 344.070923,683.026978 
	C328.226959,689.474487 312.460480,696.111938 296.632721,702.599609 
	C260.212952,717.527771 223.797241,732.466553 187.321228,747.256409 
	C179.364517,750.482605 171.162277,753.103271 163.073105,756.002808 
z"/>
<path fill="#7CD6FA" opacity="1.000000" stroke="none" 
	d="
M345.112427,707.034485 
	C340.615631,723.504700 336.129974,739.978027 331.614075,756.442993 
	C330.517761,760.440125 329.392487,764.432068 328.155243,768.387207 
	C326.260406,774.444458 324.092529,775.996338 317.672729,775.996521 
	C272.425171,775.997986 227.177612,775.986755 181.562683,775.584595 
	C183.283936,773.910156 185.243652,772.316956 187.480408,771.397949 
	C223.713455,756.510681 259.977325,741.698303 296.243774,726.892456 
	C312.522491,720.246643 328.822205,713.652222 345.112427,707.034485 
z"/>
<path fill="#73C2F9" opacity="1.000000" stroke="none" 
	d="
M361.056763,648.645630 
	C344.085236,655.754639 327.233856,662.441345 310.441895,669.273987 
	C274.380096,683.947449 238.343719,698.683350 202.309189,713.423645 
	C193.839767,716.888245 185.431747,720.502930 176.963318,723.970032 
	C175.610947,724.523682 174.088364,724.661499 172.240387,724.992493 
	C174.582153,714.521545 177.328018,704.049683 180.538101,693.612427 
	C182.805817,693.700439 184.847153,694.340210 186.377182,693.719543 
	C209.493378,684.341614 232.533356,674.776001 255.609451,665.298950 
	C288.684906,651.715454 321.759369,638.129089 354.877533,624.650391 
	C359.452606,622.788391 364.275543,621.535339 368.983704,620.000366 
	C366.390442,629.430054 363.797150,638.859741 361.056763,648.645630 
z"/>
<path fill="#6EB3F8" opacity="1.000000" stroke="none" 
	d="
M180.709290,634.009338 
	C175.132812,654.072144 169.553101,674.134094 163.981262,694.198181 
	C161.375381,703.581848 159.493591,705.010437 149.627014,705.010132 
	C126.348091,705.009399 103.069138,705.022217 79.790245,704.993286 
	C69.913155,704.981018 66.429222,700.492249 68.969452,691.101440 
	C70.268211,686.300110 71.672676,681.527466 73.537338,676.357239 
	C82.524139,672.650146 91.040436,669.419739 99.474281,665.986694 
	C119.121941,657.988953 138.688919,649.791626 158.375336,641.891296 
	C165.695450,638.953613 173.257538,636.618958 180.709290,634.009338 
z"/>
<path fill="#79D3F7" opacity="1.000000" stroke="none" 
	d="
M1125.056885,596.901062 
	C1118.622314,609.809692 1107.012451,613.132507 1094.514404,613.703979 
	C1080.055054,614.365295 1065.546143,614.029114 1051.059692,613.950684 
	C1046.514038,613.925964 1043.984619,611.277466 1043.979248,606.672363 
	C1043.943726,575.864136 1043.954346,545.055847 1043.963623,514.247620 
	C1043.964722,510.252075 1045.724365,506.915863 1049.842041,506.941650 
	C1066.460327,507.045685 1083.146240,506.807404 1099.666016,508.279236 
	C1109.806152,509.182648 1117.494873,515.736328 1120.438843,526.052368 
	C1123.196533,535.715271 1122.108398,544.924805 1114.689819,552.479858 
	C1112.647217,554.559998 1110.137207,556.181091 1107.522095,558.267883 
	C1115.770874,561.895691 1123.129639,566.254333 1126.207642,575.112427 
	C1128.725220,582.357544 1128.027100,589.518433 1125.056885,596.901062 
M1057.983643,571.577454 
	C1057.983643,581.321411 1057.983643,591.065369 1057.983643,600.868164 
	C1069.535400,600.868164 1080.359497,601.117615 1091.162231,600.747070 
	C1095.568481,600.595947 1100.093994,599.572754 1104.271362,598.108032 
	C1110.738892,595.840454 1113.887207,590.764282 1114.043091,583.896545 
	C1114.246826,574.924866 1109.541382,568.337708 1099.624146,567.237122 
	C1085.996704,565.724670 1072.190308,565.823853 1057.983643,565.211975 
	C1057.983643,567.679565 1057.983643,569.136780 1057.983643,571.577454 
M1105.773560,545.028381 
	C1111.846558,532.562378 1106.180908,521.468994 1092.176147,520.288086 
	C1080.998657,519.345581 1069.678223,520.097839 1058.307739,520.097839 
	C1058.307739,531.097229 1058.307739,541.956116 1058.307739,552.921326 
	C1068.593994,552.921326 1078.566650,553.186707 1088.516602,552.825562 
	C1094.864624,552.595154 1101.150757,551.372070 1105.773560,545.028381 
z"/>
<path fill="#68A0F7" opacity="1.000000" stroke="none" 
	d="
M289.908997,564.971802 
	C295.115479,546.078064 300.269592,527.169678 305.545593,508.295349 
	C309.544189,493.990692 309.613312,494.009430 324.238190,494.007751 
	C346.397186,494.005188 368.556152,493.989838 390.715149,494.007812 
	C400.537720,494.015808 404.064697,498.627075 401.453278,507.994781 
	C400.115143,512.794922 398.718018,517.578613 396.744507,522.685608 
	C393.015320,523.973328 389.799652,524.724976 386.777374,525.952759 
	C366.960358,534.003235 347.213318,542.226318 327.385956,550.250977 
	C314.945465,555.286011 302.404755,560.073364 289.908997,564.971802 
z"/>
<path fill="#79D1FA" opacity="1.000000" stroke="none" 
	d="
M345.375488,706.760498 
	C328.822205,713.652222 312.522491,720.246643 296.243774,726.892456 
	C259.977325,741.698303 223.713455,756.510681 187.480408,771.397949 
	C185.243652,772.316956 183.283936,773.910156 181.099304,775.511475 
	C177.051941,775.889221 173.099396,776.034302 169.149536,775.980957 
	C162.715012,775.894226 158.931580,771.025024 160.393356,764.713623 
	C161.022919,761.995422 161.909958,759.336853 162.876587,756.327026 
	C171.162277,753.103271 179.364517,750.482605 187.321228,747.256409 
	C223.797241,732.466553 260.212952,717.527771 296.632721,702.599609 
	C312.460480,696.111938 328.226959,689.474487 344.070923,683.026978 
	C346.480316,682.046570 349.160034,681.730408 352.151062,681.140259 
	C350.271149,689.611206 347.954865,698.048828 345.375488,706.760498 
z"/>
<path fill="#6371F3" opacity="1.000000" stroke="none" 
	d="
M534.878174,557.858459 
	C531.064148,560.722412 527.489746,563.321655 523.941833,565.901611 
	C538.714539,571.596436 540.043274,585.195251 541.651184,598.554443 
	C542.026550,601.673218 541.928223,604.893005 541.664062,608.034058 
	C541.304749,612.305786 538.722351,614.853821 534.437500,614.721436 
	C530.159363,614.589233 527.962952,612.041687 527.743408,607.603394 
	C527.448059,601.631531 527.383057,595.570496 526.254211,589.734436 
	C524.091003,578.551392 517.073730,572.593323 505.756287,572.229797 
	C494.783569,571.877319 483.790680,572.153381 471.982483,572.153381 
	C471.982483,576.337097 471.982697,580.411072 471.982422,584.484985 
	C471.981995,591.813538 472.033600,599.142639 471.962891,606.470520 
	C471.913025,611.637878 468.996948,614.895935 464.725342,614.790283 
	C460.631866,614.689148 457.977844,611.596863 457.972412,606.581848 
	C457.939148,575.935059 457.962463,545.288208 457.950684,514.641418 
	C457.949066,510.454712 459.576324,506.896484 463.966888,506.930481 
	C481.423981,507.065674 499.072571,506.192780 516.282654,508.470612 
	C537.657593,511.299652 548.354431,531.679626 539.948914,550.075623 
	C538.723450,552.757507 536.746826,555.096191 534.878174,557.858459 
M471.979614,538.500488 
	C471.979614,545.241638 471.979614,551.982727 471.979614,558.839417 
	C483.146454,558.839417 493.620972,559.222656 504.045746,558.669373 
	C508.885651,558.412476 513.893555,556.930298 518.356689,554.948303 
	C525.881775,551.606567 529.268311,544.972168 528.504761,537.198730 
	C527.704102,529.047546 523.721497,523.105835 515.177246,522.005310 
	C501.000732,520.179504 486.613800,519.987915 471.979614,519.087280 
	C471.979614,526.236511 471.979614,531.868835 471.979614,538.500488 
z"/>
<path fill="#6BACF6" opacity="1.000000" stroke="none" 
	d="
M289.677917,565.253784 
	C302.404755,560.073364 314.945465,555.286011 327.385956,550.250977 
	C347.213318,542.226318 366.960358,534.003235 386.777374,525.952759 
	C389.799652,524.724976 393.015320,523.973328 396.544983,523.001526 
	C394.700409,531.234558 392.457916,539.469055 390.202972,547.700134 
	C387.429047,557.825623 384.674774,567.956665 381.855164,578.069519 
	C379.704285,585.783813 377.445404,587.516968 369.495117,587.522766 
	C345.498047,587.540222 321.500946,587.532776 297.503906,587.503357 
	C288.063751,587.491821 284.625519,582.894775 287.109222,573.684082 
	C287.844788,570.956238 288.665283,568.251221 289.677917,565.253784 
z"/>
<path fill="#6270F2" opacity="1.000000" stroke="none" 
	d="
M625.543457,614.685425 
	C616.206604,614.350891 606.954712,615.304993 598.435242,613.238953 
	C574.558472,607.448608 559.258423,584.821411 560.553650,558.852600 
	C561.718567,535.497253 571.226807,517.343628 594.054749,508.581909 
	C620.253845,498.526215 649.211548,508.710907 661.552368,531.773621 
	C674.993774,556.893066 668.635010,590.369385 646.777405,605.530518 
	C640.677917,609.761414 632.945862,611.638489 625.543457,614.685425 
M580.815186,584.581360 
	C590.484314,599.888062 605.035706,604.202515 621.871338,601.801147 
	C637.703796,599.542786 648.246460,590.030029 652.316284,574.658630 
	C654.142395,567.761475 654.412659,560.145325 653.839661,552.979370 
	C652.311951,533.873169 638.170776,520.345154 618.671631,518.271423 
	C598.994446,516.178772 582.321472,526.761597 576.764771,545.329529 
	C572.794739,558.595520 573.721191,571.605469 580.815186,584.581360 
z"/>
<path fill="#70BAF9" opacity="1.000000" stroke="none" 
	d="
M369.075623,619.621704 
	C364.275543,621.535339 359.452606,622.788391 354.877533,624.650391 
	C321.759369,638.129089 288.684906,651.715454 255.609451,665.298950 
	C232.533356,674.776001 209.493378,684.341614 186.377182,693.719543 
	C184.847153,694.340210 182.805817,693.700439 180.797546,693.280457 
	C182.767395,684.740479 184.942017,676.567078 187.790344,668.146973 
	C190.381348,667.385376 192.380966,667.071716 194.203827,666.325989 
	C232.842194,650.518555 271.480042,634.709412 310.057129,618.753418 
	C314.573883,616.885193 318.734253,614.155273 323.059845,611.824829 
	C335.683533,611.723755 348.308502,611.480652 360.930237,611.595398 
	C365.625580,611.638062 368.645538,614.297302 369.075623,619.621704 
z"/>
<path fill="#6AA6F7" opacity="1.000000" stroke="none" 
	d="
M180.867126,633.649658 
	C173.257538,636.618958 165.695450,638.953613 158.375336,641.891296 
	C138.688919,649.791626 119.121941,657.988953 99.474281,665.986694 
	C91.040436,669.419739 82.524139,672.650146 73.680206,675.993774 
	C78.593796,656.997620 83.865486,637.978271 89.155930,618.964233 
	C90.535522,614.005981 93.781937,611.502747 98.988014,611.505493 
	C124.269859,611.518799 149.551941,611.443054 174.833435,611.536316 
	C181.662155,611.561462 185.205002,616.005798 183.922073,622.738525 
	C183.241531,626.310059 182.008545,629.776184 180.867126,633.649658 
z"/>
<path fill="#7AD4F7" opacity="1.000000" stroke="none" 
	d="
M1005.909424,506.691132 
	C1009.225037,506.709015 1012.062378,506.610107 1014.884399,506.773804 
	C1018.541809,506.985992 1020.767761,508.983582 1021.059753,512.694092 
	C1021.376587,516.721069 1019.120789,518.910278 1015.381348,519.608704 
	C1013.766602,519.910278 1012.063538,519.776672 1010.400635,519.777649 
	C993.777161,519.787170 977.153625,519.783386 960.258179,519.783386 
	C960.258179,531.156311 960.258179,542.213318 960.258179,553.766052 
	C971.551880,553.766052 982.663879,553.766052 993.775940,553.766113 
	C998.272217,553.766174 1002.768921,553.730042 1007.264709,553.776245 
	C1012.636414,553.831482 1015.602295,556.105042 1015.703430,560.147644 
	C1015.806885,564.289612 1012.598022,566.829407 1007.002014,566.844727 
	C992.847168,566.883362 978.692078,566.857788 964.537109,566.857910 
	C963.224182,566.857971 961.911194,566.857910 960.291748,566.857910 
	C960.291748,578.166321 960.291748,589.239929 960.291748,600.953552 
	C961.811279,600.953552 963.405334,600.953552 964.999451,600.953613 
	C980.819702,600.953857 996.640015,600.940613 1012.460266,600.961121 
	C1018.380249,600.968750 1021.112488,603.081360 1021.109375,607.528748 
	C1021.106384,611.935303 1018.379211,613.993286 1012.384033,613.998596 
	C993.233154,614.015442 974.082275,614.020508 954.931396,613.996216 
	C948.224365,613.987732 945.966553,611.738708 945.962219,605.044434 
	C945.942871,575.235718 945.942078,545.426941 945.963623,515.618225 
	C945.968506,508.898254 948.147888,506.722748 954.965942,506.705566 
	C971.785278,506.663208 988.604797,506.691315 1005.909424,506.691132 
z"/>
<path fill="#6CB0F5" opacity="1.000000" stroke="none" 
	d="
M322.673981,611.683228 
	C318.734253,614.155273 314.573883,616.885193 310.057129,618.753418 
	C271.480042,634.709412 232.842194,650.518555 194.203827,666.325989 
	C192.380966,667.071716 190.381348,667.385376 188.058441,667.882324 
	C192.180771,651.567139 196.677765,635.261230 201.254868,618.977844 
	C202.695831,613.851440 206.103165,611.449646 211.560898,611.462708 
	C248.469818,611.551086 285.379028,611.528320 322.673981,611.683228 
z"/>
<path fill="#6371F3" opacity="1.000000" stroke="none" 
	d="
M712.193298,567.175049 
	C724.854736,551.543030 737.292786,536.185791 750.397644,520.005188 
	C747.874756,520.005188 746.293335,520.005249 744.711914,520.005249 
	C727.551208,520.005188 710.390442,520.020203 693.229736,519.996399 
	C687.518738,519.988464 684.614502,517.670227 684.658508,513.297852 
	C684.702026,508.974487 687.593323,506.703949 693.339417,506.695526 
	C714.165527,506.664978 734.991638,506.707092 755.817627,506.665009 
	C760.187744,506.656189 764.223145,507.149139 766.305542,511.720917 
	C768.374390,516.263000 766.821106,520.004150 763.871216,523.638062 
	C744.241211,547.819763 724.680847,572.057983 705.104553,596.283264 
	C704.087769,597.541565 703.132324,598.849365 701.698792,600.720947 
	C703.752319,600.819031 705.154236,600.943176 706.556335,600.944275 
	C724.216858,600.957764 741.877441,600.939941 759.537964,600.961548 
	C765.377014,600.968750 768.186646,603.161926 768.162842,607.559814 
	C768.139160,611.935852 765.388306,613.994080 759.398621,613.998596 
	C737.906067,614.014771 716.413391,613.961609 694.921143,614.040710 
	C690.544373,614.056824 686.998291,612.867126 685.069519,608.709167 
	C683.235901,604.756348 684.464539,601.312256 687.091248,598.097290 
	C695.416321,587.907776 703.681580,577.669312 712.193298,567.175049 
z"/>
<path fill="#75CBED" opacity="1.000000" stroke="none" 
	d="
M473.811523,676.756958 
	C483.316803,671.195679 493.882172,672.275024 500.286041,679.479309 
	C499.431152,680.664978 498.522858,681.924683 497.462158,683.395752 
	C492.474640,678.618591 486.816162,676.883667 480.738037,679.137207 
	C478.537323,679.953186 475.810608,682.808655 475.691986,684.869751 
	C475.556610,687.222900 477.476501,690.746704 479.550842,691.938782 
	C483.041656,693.944824 487.361694,694.504211 491.328796,695.686157 
	C496.906067,697.347778 501.362091,700.126038 502.235901,706.539062 
	C503.344910,714.678101 499.255920,720.497559 491.165924,722.138977 
	C483.966431,723.599792 477.283173,722.545288 471.410400,717.855713 
	C468.035980,715.161072 467.799927,712.599365 472.002777,710.061218 
	C476.326111,716.417236 482.388824,718.459412 489.779755,717.114380 
	C493.960815,716.353455 496.272430,713.832642 496.603912,709.707764 
	C496.917328,705.808105 495.207031,702.834900 491.404724,701.575684 
	C487.159088,700.169739 482.715454,699.331482 478.528595,697.784363 
	C469.037354,694.277466 466.815979,684.693176 473.811523,676.756958 
z"/>
<path fill="#75CBED" opacity="1.000000" stroke="none" 
	d="
M554.375366,698.710083 
	C557.108704,688.899170 563.118042,684.424988 572.225037,685.087708 
	C580.968811,685.723999 586.149658,691.039368 587.397827,700.654297 
	C589.366455,715.819153 579.643494,725.479248 565.837646,722.075073 
	C559.140869,720.423767 554.774353,714.976562 554.108582,707.084229 
	C553.886719,704.453674 554.199158,701.777954 554.375366,698.710083 
M579.488159,713.831543 
	C582.389160,708.783325 582.580566,703.424194 581.151611,697.948364 
	C579.692383,692.356506 576.043030,689.788269 570.166077,690.009460 
	C564.856995,690.209229 561.105225,693.285217 560.189270,698.639954 
	C559.746643,701.227539 559.802002,703.930969 559.895386,706.572693 
	C560.057190,711.149902 561.555176,715.140930 566.184143,716.942932 
	C570.888672,718.774231 575.298950,718.187134 579.488159,713.831543 
z"/>
<path fill="#75CBED" opacity="1.000000" stroke="none" 
	d="
M922.091553,700.426941 
	C925.027649,687.775513 933.908386,682.111816 944.805420,686.185852 
	C947.958679,687.364807 951.275513,690.043152 952.918457,692.940613 
	C956.913513,699.986328 956.751465,707.669434 953.061462,714.906128 
	C949.889709,721.126343 944.072327,723.034851 937.524597,722.674927 
	C930.598816,722.294250 925.325989,718.979370 923.296143,712.165955 
	C922.231506,708.592346 922.424988,704.643982 922.091553,700.426941 
M944.603882,716.412048 
	C950.457764,711.552917 952.071960,699.639221 947.232178,693.909546 
	C945.677063,692.068542 942.948730,690.593323 940.552307,690.200745 
	C932.004639,688.800354 927.387085,694.411316 927.779114,705.162598 
	C928.160095,715.611267 933.913574,719.760559 944.603882,716.412048 
z"/>
<path fill="#75CBED" opacity="1.000000" stroke="none" 
	d="
M733.950745,705.996948 
	C733.950745,711.473755 733.950745,716.451538 733.950745,721.722900 
	C732.271423,721.722900 730.870911,721.722900 729.279724,721.722900 
	C728.954651,720.491760 728.602844,719.159241 728.127930,717.360291 
	C723.999878,721.460510 719.567200,723.601440 713.986023,722.448120 
	C708.486694,721.311707 705.223816,718.272339 705.029846,712.686951 
	C704.724731,703.899841 704.948730,695.094482 704.948730,686.073364 
	C706.594971,686.073364 708.028503,686.073364 710.076965,686.073364 
	C710.076965,693.309021 710.057678,700.558594 710.082458,707.808044 
	C710.106201,714.758362 712.027832,717.546387 716.993896,717.949951 
	C723.066040,718.443542 727.606750,714.861938 727.989868,708.359741 
	C728.418579,701.083801 728.088257,693.763184 728.088257,686.157837 
	C730.295166,686.157837 731.875061,686.157837 733.950745,686.157837 
	C733.950745,692.631775 733.950745,699.064880 733.950745,705.996948 
z"/>
<path fill="#75CBED" opacity="1.000000" stroke="none" 
	d="
M1017.365723,693.489746 
	C1016.339294,698.150391 1015.228394,702.469177 1014.868958,706.849548 
	C1014.476501,711.632568 1014.779663,716.472717 1014.779663,721.697144 
	C1012.977234,721.834717 1011.413574,721.954041 1009.186890,722.123962 
	C1009.186890,715.854553 1009.186829,709.914490 1009.186829,703.974487 
	C1009.186768,698.154480 1009.186890,692.334473 1009.186890,686.193665 
	C1010.764771,686.048767 1012.201233,685.916870 1013.886169,685.762146 
	C1014.226074,687.480225 1014.526733,689.000061 1014.600464,689.372803 
	C1018.785522,687.906128 1022.775818,685.598450 1026.928833,685.254211 
	C1034.094971,684.660156 1038.401123,688.611023 1038.777466,695.814575 
	C1039.227295,704.424438 1038.883545,713.075745 1038.883545,721.863403 
	C1037.150146,721.863403 1035.701050,721.863403 1033.655518,721.863403 
	C1033.655518,714.670288 1033.728394,707.570557 1033.626099,700.473267 
	C1033.571533,696.679688 1033.984863,692.282715 1029.559570,690.578064 
	C1025.271606,688.926392 1021.017700,689.654175 1017.365723,693.489746 
z"/>
<path fill="#75CBED" opacity="1.000000" stroke="none" 
	d="
M1119.030029,711.957031 
	C1117.999512,718.603760 1115.712158,721.109131 1109.630737,722.252258 
	C1103.257568,723.450378 1097.249268,722.618896 1092.753906,717.530884 
	C1092.073242,716.760498 1093.387085,714.227905 1093.484497,713.800110 
	C1098.787476,715.347473 1102.957153,717.096802 1107.279175,717.643921 
	C1110.322754,718.029175 1113.222534,716.149475 1113.586792,712.525146 
	C1113.959351,708.819214 1111.400757,707.244690 1108.271973,706.376160 
	C1105.392944,705.576965 1102.436401,705.005005 1099.631226,704.003906 
	C1095.072510,702.377014 1092.598633,699.129883 1092.927979,694.108521 
	C1093.250854,689.187500 1096.320190,686.687195 1100.768188,685.703796 
	C1107.043213,684.316345 1112.945923,684.658203 1117.607788,689.996582 
	C1116.058838,692.986633 1114.808105,693.372864 1111.782471,691.616882 
	C1109.174316,690.103027 1105.445190,690.025269 1102.265381,690.214905 
	C1100.825562,690.300781 1098.495483,692.506226 1098.406616,693.869873 
	C1098.296631,695.556213 1099.676270,698.205688 1101.159302,698.949036 
	C1104.215942,700.481140 1107.770752,701.015808 1111.115967,701.976868 
	C1115.931274,703.360168 1118.894775,706.285706 1119.030029,711.957031 
z"/>
<path fill="#79D2F5" opacity="1.000000" stroke="none" 
	d="
M791.951782,684.012207 
	C791.964111,681.906494 791.964111,680.250000 791.964111,678.315308 
	C793.612122,677.998840 795.136841,677.706055 797.010132,677.346375 
	C797.150574,680.166748 797.271912,682.602417 797.432983,685.836792 
	C799.256104,685.836792 800.998840,685.836792 802.741577,685.836792 
	C804.568237,685.836792 806.394958,685.836792 808.582764,685.836792 
	C808.740234,687.117249 808.888123,688.319946 809.105225,690.085083 
	C805.042297,690.085083 801.304993,690.085083 797.262451,690.085083 
	C797.262451,697.742188 797.021423,704.886719 797.338196,712.006409 
	C797.594727,717.772522 800.883545,719.037598 807.913391,716.561401 
	C810.552795,720.223633 810.359741,720.915710 806.372070,722.087097 
	C797.712708,724.630676 792.068481,720.402527 791.977600,711.252747 
	C791.911621,704.603943 791.922974,697.954468 791.874695,691.305481 
	C791.872559,691.009460 791.620728,690.715271 791.395874,690.225830 
	C789.713806,690.142578 787.938232,690.054688 785.950256,689.956299 
	C785.950256,688.662903 785.950256,687.561829 785.950256,686.655090 
	C787.996460,685.905701 789.967957,685.183594 791.951782,684.012207 
z"/>
<path fill="#6EC1E1" opacity="1.000000" stroke="none" 
	d="
M642.041565,704.979004 
	C642.041565,693.537720 642.041565,682.592407 642.041565,671.378906 
	C644.036682,671.378906 645.589722,671.378906 647.659363,671.378906 
	C647.659363,682.557190 647.659363,693.501465 647.659424,704.445801 
	C647.659485,706.774414 647.761658,709.108398 647.637878,711.430420 
	C647.409607,715.713440 648.166199,718.985901 653.477295,717.678467 
	C655.302124,721.745972 653.539673,722.886658 650.147888,722.791565 
	C645.483398,722.660767 642.521973,719.889221 642.138916,714.951355 
	C641.895142,711.808960 642.059998,708.634827 642.041565,704.979004 
z"/>
<path fill="#6EC1E1" opacity="1.000000" stroke="none" 
	d="
M867.816162,707.990479 
	C867.816162,712.779419 867.816162,717.070740 867.816162,721.741455 
	C865.962036,721.870483 864.395935,721.979431 862.480164,722.112732 
	C862.480164,710.095886 862.480164,698.386902 862.480164,686.249023 
	C863.950989,686.249023 865.637146,686.249023 867.816162,686.249023 
	C867.816162,693.341980 867.816162,700.417419 867.816162,707.990479 
z"/>
<path fill="#6EC1E1" opacity="1.000000" stroke="none" 
	d="
M862.256592,677.731689 
	C862.259827,675.609680 862.057129,673.433960 863.004333,672.039001 
	C863.457642,671.371399 866.473511,671.661560 867.610107,672.496399 
	C868.466431,673.125366 868.716858,676.412598 868.308044,676.612000 
	C866.568237,677.460632 864.482544,677.600220 862.256592,677.731689 
z"/>
<path fill="#010102" opacity="1.000000" stroke="none" 
	d="
M1057.983643,571.085693 
	C1057.983643,569.136780 1057.983643,567.679565 1057.983643,565.211975 
	C1072.190308,565.823853 1085.996704,565.724670 1099.624146,567.237122 
	C1109.541382,568.337708 1114.246826,574.924866 1114.043091,583.896545 
	C1113.887207,590.764282 1110.738892,595.840454 1104.271362,598.108032 
	C1100.093994,599.572754 1095.568481,600.595947 1091.162231,600.747070 
	C1080.359497,601.117615 1069.535400,600.868164 1057.983643,600.868164 
	C1057.983643,591.065369 1057.983643,581.321411 1057.983643,571.085693 
z"/>
<path fill="#010102" opacity="1.000000" stroke="none" 
	d="
M1105.542480,545.330627 
	C1101.150757,551.372070 1094.864624,552.595154 1088.516602,552.825562 
	C1078.566650,553.186707 1068.593994,552.921326 1058.307739,552.921326 
	C1058.307739,541.956116 1058.307739,531.097229 1058.307739,520.097839 
	C1069.678223,520.097839 1080.998657,519.345581 1092.176147,520.288086 
	C1106.180908,521.468994 1111.846558,532.562378 1105.542480,545.330627 
z"/>
<path fill="#010102" opacity="1.000000" stroke="none" 
	d="
M471.979614,538.000854 
	C471.979614,531.868835 471.979614,526.236511 471.979614,519.087280 
	C486.613800,519.987915 501.000732,520.179504 515.177246,522.005310 
	C523.721497,523.105835 527.704102,529.047546 528.504761,537.198730 
	C529.268311,544.972168 525.881775,551.606567 518.356689,554.948303 
	C513.893555,556.930298 508.885651,558.412476 504.045746,558.669373 
	C493.620972,559.222656 483.146454,558.839417 471.979614,558.839417 
	C471.979614,551.982727 471.979614,545.241638 471.979614,538.000854 
z"/>
<path fill="#010102" opacity="1.000000" stroke="none" 
	d="
M580.605103,584.277222 
	C573.721191,571.605469 572.794739,558.595520 576.764771,545.329529 
	C582.321472,526.761597 598.994446,516.178772 618.671631,518.271423 
	C638.170776,520.345154 652.311951,533.873169 653.839661,552.979370 
	C654.412659,560.145325 654.142395,567.761475 652.316284,574.658630 
	C648.246460,590.030029 637.703796,599.542786 621.871338,601.801147 
	C605.035706,604.202515 590.484314,599.888062 580.605103,584.277222 
z"/>
<path fill="#010102" opacity="1.000000" stroke="none" 
	d="
M579.246399,714.137756 
	C575.298950,718.187134 570.888672,718.774231 566.184143,716.942932 
	C561.555176,715.140930 560.057190,711.149902 559.895386,706.572693 
	C559.802002,703.930969 559.746643,701.227539 560.189270,698.639954 
	C561.105225,693.285217 564.856995,690.209229 570.166077,690.009460 
	C576.043030,689.788269 579.692383,692.356506 581.151611,697.948364 
	C582.580566,703.424194 582.389160,708.783325 579.246399,714.137756 
z"/>
<path fill="#010102" opacity="1.000000" stroke="none" 
	d="
M944.269775,716.613159 
	C933.913574,719.760559 928.160095,715.611267 927.779114,705.162598 
	C927.387085,694.411316 932.004639,688.800354 940.552307,690.200745 
	C942.948730,690.593323 945.677063,692.068542 947.232178,693.909546 
	C952.071960,699.639221 950.457764,711.552917 944.269775,716.613159 
z"/>
</svg>